<?xml version="1.0" standalone="no"?>
<!DOCTYPE svg PUBLIC "-//W3C//DTD SVG 20010904//EN"
 "http://www.w3.org/TR/2001/REC-SVG-20010904/DTD/svg10.dtd">
<svg version="1.0" xmlns="http://www.w3.org/2000/svg"
 width="1024.000000pt" height="1024.000000pt" viewBox="0 0 1024.000000 1024.000000"
 preserveAspectRatio="xMidYMid meet">
<metadata>
Created by potrace 1.15, written by Peter Selinger 2001-2017
</metadata>
<g transform="translate(0.000000,1024.000000) scale(0.100000,-0.100000)"
fill="#000000" stroke="none">
<path d="M4675 8569 c-54 -12 -99 -49 -85 -69 9 -12 10 -12 8 5 -2 12 2 19 10
18 6 -2 12 1 12 6 0 5 9 7 20 4 11 -3 35 2 54 11 19 9 60 17 93 17 57 1 57 1
18 10 -50 10 -79 9 -130 -2z"/>
<path d="M4879 8545 c18 -8 41 -15 50 -14 9 0 0 7 -19 14 -47 18 -74 18 -31 0z"/>
<path d="M4665 8250 c10 -11 20 -20 23 -20 3 0 -3 9 -13 20 -10 11 -20 20 -23
20 -3 0 3 -9 13 -20z"/>
<path d="M3185 8155 c-88 -20 -142 -41 -216 -85 -61 -36 -85 -60 -73 -73 8 -8
44 4 44 15 0 5 5 6 12 2 7 -5 8 -3 4 5 -5 7 -15 10 -23 6 -13 -4 -14 -3 -3 10
7 9 15 13 18 11 2 -3 23 7 46 23 52 36 139 64 177 59 16 -3 29 -1 29 4 0 4 18
8 40 8 22 0 40 4 40 10 0 5 39 11 88 13 l87 3 -105 1 c-58 1 -132 -5 -165 -12z"/>
<path d="M3480 8150 c14 -4 34 -8 45 -8 16 0 15 2 -5 8 -14 4 -34 8 -45 8 -16
0 -15 -2 5 -8z"/>
<path d="M6765 8153 c-11 -2 -27 -7 -35 -10 -8 -3 -18 -6 -21 -5 -3 0 -6 -6
-6 -13 0 -9 4 -11 11 -6 6 5 39 11 74 14 49 4 62 2 62 -9 0 -8 7 -14 15 -14 8
0 15 5 15 10 0 6 13 10 29 10 16 0 31 5 33 12 3 9 17 9 59 1 30 -5 63 -14 73
-18 13 -6 17 -5 13 2 -12 20 -96 33 -199 32 -57 -1 -112 -3 -123 -6z"/>
<path d="M3560 8130 c20 -13 33 -13 25 0 -3 6 -14 10 -23 10 -15 0 -15 -2 -2
-10z"/>
<path d="M4820 8126 c0 -2 7 -7 16 -10 8 -3 12 -2 9 4 -6 10 -25 14 -25 6z"/>
<path d="M6665 8120 c-3 -6 1 -7 9 -4 18 7 21 14 7 14 -6 0 -13 -4 -16 -10z"/>
<path d="M4865 8110 c-3 -5 -1 -10 4 -10 6 0 11 5 11 10 0 6 -2 10 -4 10 -3 0
-8 -4 -11 -10z"/>
<path d="M6630 8110 c-9 -6 -10 -10 -3 -10 6 0 15 5 18 10 8 12 4 12 -15 0z"/>
<path d="M3640 8096 c0 -2 7 -6 15 -10 8 -3 15 -1 15 4 0 6 -7 10 -15 10 -8 0
-15 -2 -15 -4z"/>
<path d="M6585 8090 c-3 -6 1 -7 9 -4 18 7 21 14 7 14 -6 0 -13 -4 -16 -10z"/>
<path d="M3711 8061 c-10 -6 -9 -10 3 -14 8 -3 18 -2 21 3 8 13 -9 20 -24 11z"/>
<path d="M3750 8046 c0 -2 8 -10 18 -17 15 -13 16 -12 3 4 -13 16 -21 21 -21
13z"/>
<path d="M3696 8008 c3 -4 11 -5 19 -1 21 7 19 12 -4 10 -11 0 -18 -5 -15 -9z"/>
<path d="M4665 8010 c-18 -8 -17 -9 8 -9 15 -1 27 4 27 9 0 12 -8 12 -35 0z"/>
<path d="M4618 8003 c7 -3 16 -2 19 1 4 3 -2 6 -13 5 -11 0 -14 -3 -6 -6z"/>
<path d="M2835 7970 c-16 -17 -25 -30 -19 -30 5 0 5 -4 -1 -8 -17 -12 -44 -71
-36 -77 12 -7 21 5 21 27 0 10 5 18 10 18 6 0 10 -6 10 -14 0 -9 7 -12 20 -9
19 5 40 25 23 22 -24 -4 -43 3 -43 16 0 17 39 36 55 27 6 -3 1 5 -9 17 -17 18
-17 21 -3 15 9 -3 17 -1 17 4 0 23 -18 20 -45 -8z m15 -4 c0 -2 -8 -10 -17
-17 -16 -13 -17 -12 -4 4 13 16 21 21 21 13z"/>
<path d="M5910 7949 c35 -15 80 -29 80 -23 0 6 -44 23 -78 29 l-27 5 25 -11z"/>
<path d="M3202 7871 c-143 -53 -217 -126 -262 -260 -11 -33 -20 -86 -21 -118
-1 -55 -2 -56 -10 -23 -5 19 -10 45 -11 58 0 13 -3 20 -6 18 -10 -10 -32 16
-32 38 0 12 -6 30 -13 40 -12 16 -17 17 -37 6 -18 -10 -24 -9 -31 1 -4 7 -12
10 -16 5 -4 -5 -2 -11 5 -13 6 -3 12 -9 12 -15 0 -6 -6 -8 -12 -5 -7 2 -23 1
-35 -4 -15 -6 -20 -13 -16 -29 4 -16 2 -19 -11 -14 -11 4 -16 0 -17 -12 0 -18
-1 -17 -9 1 -5 11 -9 34 -10 50 -1 26 -2 27 -9 10 -5 -11 -7 -86 -6 -165 3
-154 14 -206 65 -295 29 -49 129 -175 140 -175 4 0 18 -11 31 -25 13 -13 27
-25 30 -25 6 0 19 56 24 102 3 23 44 88 76 121 15 15 40 53 54 85 70 149 324
430 488 539 l70 46 -89 35 c-117 45 -258 54 -342 23z m-372 -271 c8 -5 11 -12
8 -16 -10 -9 -38 3 -38 16 0 12 10 13 30 0z"/>
<path d="M6818 7879 c-26 -4 -69 -18 -95 -31 -59 -29 -151 -113 -180 -165
l-22 -39 56 -44 c172 -138 358 -414 398 -590 27 -123 29 -250 6 -363 -11 -53
-28 -111 -36 -127 -9 -17 -25 -60 -36 -96 -61 -198 -240 -417 -424 -519 -27
-15 -77 -43 -110 -61 -88 -48 -297 -116 -378 -122 -58 -4 -70 -2 -83 14 -8 11
-4 -1 9 -26 14 -25 30 -63 37 -85 7 -22 28 -71 47 -110 18 -38 33 -74 33 -80
0 -6 -26 -18 -57 -27 -81 -23 -351 -119 -523 -184 -164 -63 -522 -235 -680
-326 -148 -86 -372 -235 -455 -302 -38 -32 -112 -89 -164 -128 l-93 -71 -102
32 c-387 125 -767 445 -943 795 -96 191 -160 419 -183 651 -16 168 -40 316
-54 344 -8 14 -17 41 -21 59 l-7 34 -15 -29 c-8 -15 -22 -37 -32 -48 -49 -54
-66 -189 -52 -402 27 -383 157 -714 390 -993 75 -89 227 -235 335 -322 114
-91 124 -100 81 -73 -92 57 -395 332 -395 357 0 5 -5 6 -12 2 -6 -4 -8 -3 -4
4 3 6 2 14 -4 17 -6 4 -29 32 -52 63 -22 31 -50 65 -62 74 -12 9 -22 22 -22
27 -1 6 -2 15 -3 21 0 5 -9 7 -18 4 -15 -5 -16 -4 -3 5 10 7 11 11 3 11 -7 0
-13 7 -13 15 0 8 -4 15 -10 15 -5 0 -10 6 -10 13 0 11 -54 92 -89 133 -5 7 -7
14 -4 17 2 3 0 14 -7 24 -11 17 -11 17 -6 -2 6 -18 4 -18 -13 3 -19 22 -20 22
-26 2 -10 -32 3 -94 46 -214 72 -203 189 -385 349 -546 116 -116 274 -240 380
-298 38 -20 72 -43 75 -50 17 -43 -391 -479 -420 -450 -11 11 -28 126 -31 203
l-3 80 -58 6 c-74 7 -172 51 -243 109 -70 56 -79 66 -152 175 -97 145 -141
241 -188 410 -24 87 -28 94 -27 54 1 -26 6 -44 11 -41 5 3 6 -6 2 -21 -3 -14
-2 -29 4 -32 5 -3 10 -11 10 -16 0 -6 -5 -7 -10 -4 -7 5 -10 -25 -9 -89 1 -53
4 -94 8 -92 3 2 7 -6 7 -17 4 -76 108 -310 128 -290 4 4 4 0 1 -10 -5 -11 3
-27 23 -47 17 -16 28 -30 25 -30 -3 0 0 -7 7 -15 7 -8 10 -15 6 -15 -12 0 -99
126 -132 193 -19 37 -49 109 -67 160 -32 92 -32 92 -31 287 0 167 4 207 22
277 24 88 29 212 12 275 l-11 37 -48 -20 c-58 -24 -104 -89 -151 -210 -24 -64
-32 -105 -41 -212 -6 -72 -8 -169 -5 -214 9 -102 45 -255 86 -359 45 -113 177
-364 258 -491 38 -59 85 -139 106 -178 20 -38 67 -112 103 -164 81 -112 345
-381 428 -436 33 -21 108 -86 167 -144 59 -58 109 -103 112 -100 2 2 9 81 15
174 12 200 43 416 69 477 11 23 29 74 42 112 12 38 45 108 72 155 159 276 339
482 593 680 337 263 506 372 839 540 286 144 433 203 976 392 129 45 275 99
324 120 184 80 433 246 549 365 141 147 279 375 311 515 24 107 39 249 32 313
-18 166 -38 264 -62 315 l-27 53 31 29 c16 15 32 26 34 24 3 -3 20 9 38 25 19
17 39 30 46 30 18 0 65 60 58 72 -4 7 -2 8 4 4 14 -8 46 39 37 54 -3 5 -1 10
4 10 6 0 11 6 11 14 0 8 7 17 16 20 15 6 15 9 -1 34 -10 15 -12 22 -5 15 13
-12 40 -7 40 9 0 5 -6 6 -12 3 -7 -4 -5 0 5 8 18 15 23 37 8 37 -5 0 -16 -10
-24 -22 l-16 -23 -7 22 c-6 23 -61 42 -82 29 -6 -3 -13 2 -17 12 -6 15 -8 15
-24 -5 -20 -24 -41 -14 -41 19 0 10 -4 18 -10 18 -5 0 -10 -7 -10 -16 0 -8 -5
-12 -11 -8 -8 4 -9 -1 -4 -17 7 -22 7 -22 -10 -6 -21 21 -33 14 -15 -8 8 -10
9 -15 1 -15 -6 0 -11 6 -11 13 0 7 -7 4 -15 -7 -8 -11 -15 -15 -15 -10 0 6 4
14 9 20 5 5 19 37 31 72 19 53 22 76 17 147 -6 112 -38 176 -125 256 -92 84
-197 117 -314 98z m-3213 -3512 c16 -15 -68 29 -90 48 -11 9 3 4 30 -11 28
-15 55 -32 60 -37z m85 -49 c0 -10 -36 7 -45 22 -4 6 5 5 19 -2 14 -6 26 -15
26 -20z m50 -13 c14 -8 21 -14 15 -14 -5 0 -21 6 -35 14 -14 8 -20 14 -15 14
6 0 21 -6 35 -14z m80 -35 c8 -5 11 -10 5 -10 -5 0 -17 5 -25 10 -8 5 -10 10
-5 10 6 0 17 -5 25 -10z m45 -20 c3 -6 -1 -7 -9 -4 -18 7 -21 14 -7 14 6 0 13
-4 16 -10z m-9 -52 c-9 -12 -16 -19 -16 -15 0 11 24 47 28 42 2 -2 -3 -14 -12
-27z m-26 -42 c0 -2 -8 -10 -17 -17 -16 -13 -17 -12 -4 4 13 16 21 21 21 13z
m-49 -54 c-5 -9 -19 -26 -32 -37 -19 -16 -18 -13 5 18 30 39 43 49 27 19z
m-77 -96 c-133 -157 -319 -493 -358 -646 -29 -111 -57 -200 -66 -205 -4 -3
-13 2 -19 9 -9 11 -7 17 9 29 12 8 25 30 30 49 58 235 160 447 323 673 50 69
97 125 105 125 2 0 -9 -15 -24 -34z m-724 -323 c-19 -3 -39 -9 -44 -14 -6 -5
-18 -9 -28 -9 -10 0 -22 -9 -26 -20 -7 -19 -9 -17 -22 12 l-15 33 85 1 c47 0
69 -1 50 -3z"/>
<path d="M3265 3180 c-3 -5 -1 -10 4 -10 6 0 11 5 11 10 0 6 -2 10 -4 10 -3 0
-8 -4 -11 -10z"/>
<path d="M2681 7574 c0 -11 3 -14 6 -6 3 7 2 16 -1 19 -3 4 -6 -2 -5 -13z"/>
<path d="M5752 7319 c-130 -13 -274 -109 -345 -230 -33 -56 -67 -185 -67 -253
0 -122 60 -256 152 -342 99 -91 192 -127 328 -128 99 0 170 20 245 70 287 189
283 627 -8 815 -96 62 -180 81 -305 68z m145 -134 c48 -20 71 -41 95 -89 41
-80 5 -180 -82 -228 -47 -26 -143 -20 -195 12 -117 72 -92 256 41 302 62 21
95 22 141 3z m205 -342 c24 -22 48 -66 48 -89 0 -9 -16 -32 -35 -51 -32 -32
-39 -35 -78 -30 -30 4 -50 15 -69 37 -40 43 -37 83 7 127 31 31 40 35 72 30
19 -4 44 -14 55 -24z"/>
<path d="M3091 6897 c-13 -21 -12 -21 5 -5 10 10 16 20 13 22 -3 3 -11 -5 -18
-17z"/>
<path d="M3065 6850 c-8 -13 -16 -54 -9 -47 3 3 6 9 6 14 0 4 4 16 9 26 10 18
5 24 -6 7z"/>
<path d="M3006 6713 c-6 -14 -5 -15 5 -6 7 7 10 15 7 18 -3 3 -9 -2 -12 -12z"/>
<path d="M2970 6641 c0 -5 -3 -18 -6 -28 -5 -16 -4 -16 10 1 18 23 20 36 6 36
-5 0 -10 -4 -10 -9z"/>
<path d="M3400 6610 c0 -5 7 -7 15 -4 8 4 15 8 15 10 0 2 -7 4 -15 4 -8 0 -15
-4 -15 -10z"/>
<path d="M2951 6554 c0 -11 3 -14 6 -6 3 7 2 16 -1 19 -3 4 -6 -2 -5 -13z"/>
<path d="M3190 6469 c0 -5 5 -7 10 -4 6 3 10 8 10 11 0 2 -4 4 -10 4 -5 0 -10
-5 -10 -11z"/>
<path d="M3155 6440 c-3 -5 -1 -10 4 -10 6 0 11 5 11 10 0 6 -2 10 -4 10 -3 0
-8 -4 -11 -10z"/>
<path d="M3110 6390 c-9 -6 -10 -10 -3 -10 6 0 15 5 18 10 8 12 4 12 -15 0z"/>
<path d="M3585 6385 c-5 -2 -22 -6 -37 -9 -31 -7 -68 -61 -68 -100 0 -15 6
-39 14 -54 16 -32 310 -322 325 -322 7 0 11 -54 11 -160 l0 -160 -67 -2 c-38
-2 -117 -3 -178 -3 -105 0 -110 -1 -113 -22 -6 -41 19 -105 53 -137 32 -30 33
-33 38 -131 6 -118 26 -180 80 -240 58 -67 105 -85 219 -85 83 0 99 3 123 22
22 17 31 19 44 10 37 -27 69 -34 141 -30 89 5 140 28 193 87 48 54 58 94 50
222 l-6 108 32 37 c37 41 51 73 51 113 0 49 -8 51 -243 51 l-218 0 6 153 7
152 67 68 c36 38 107 102 158 143 103 84 120 106 129 161 4 30 1 45 -18 73
-41 60 -39 60 -428 59 -195 0 -359 -2 -365 -4z m298 -1082 c3 -54 3 -111 0
-126 -5 -27 -7 -28 -67 -25 l-61 3 -3 123 -3 122 64 0 64 0 6 -97z m337 -17
c0 -57 -3 -111 -6 -120 -8 -20 -123 -23 -142 -4 -13 13 -17 164 -6 206 6 20
12 22 80 22 l74 0 0 -104z"/>
<path d="M5655 6360 c3 -5 13 -10 21 -10 8 0 12 5 9 10 -3 6 -13 10 -21 10 -8
0 -12 -4 -9 -10z"/>
<path d="M3015 6290 c-3 -5 -1 -10 4 -10 6 0 11 5 11 10 0 6 -2 10 -4 10 -3 0
-8 -4 -11 -10z"/>
<path d="M7770 5809 c-11 -25 -10 -54 4 -167 9 -75 21 -166 27 -202 9 -48 9
-99 0 -195 -6 -71 -11 -182 -11 -245 0 -68 -4 -109 -9 -101 -6 9 -11 -3 -15
-35 -22 -151 -150 -433 -272 -601 -160 -220 -333 -370 -574 -501 -169 -91
-431 -153 -644 -152 -142 0 -189 7 -238 31 -21 11 -44 19 -51 19 -9 0 -25 -30
-41 -74 -15 -40 -38 -83 -50 -95 -32 -30 -191 -89 -301 -112 -163 -34 -431
-19 -539 30 -23 10 -60 38 -83 61 -47 47 -53 40 -27 -31 24 -70 45 -166 38
-183 -7 -18 -94 -52 -168 -67 -79 -15 -259 -59 -391 -94 -66 -18 -145 -38
-175 -44 -142 -28 -324 -61 -340 -61 -10 0 -20 -4 -22 -9 -1 -5 -21 -12 -43
-14 -53 -6 -115 -18 -115 -22 0 -2 4 -15 10 -29 7 -19 6 -26 -2 -26 -7 0 -6
-5 3 -12 9 -7 21 -33 28 -58 21 -72 49 -99 270 -258 47 -33 81 -64 81 -72 0
-5 14 -39 31 -75 28 -57 37 -68 78 -86 60 -27 150 -34 251 -20 l81 12 72 -46
c77 -49 174 -83 322 -112 71 -13 140 -17 330 -16 214 0 256 3 390 27 277 50
512 146 755 311 80 54 157 108 172 121 21 17 36 21 65 17 141 -19 420 213 674
559 35 48 100 133 145 190 187 239 305 447 441 777 38 93 62 171 79 255 42
215 48 327 36 701 -11 379 -14 397 -93 584 -50 118 -79 151 -130 151 -31 0
-38 -4 -49 -31z m27 -951 c-3 -8 -6 -5 -6 6 -1 11 2 17 5 13 3 -3 4 -12 1 -19z
m11 -130 l-2 -83 -5 75 c-3 41 -5 78 -3 83 9 21 12 -1 10 -75z m-1 -130 c-3
-8 -6 -5 -6 6 -1 11 2 17 5 13 3 -3 4 -12 1 -19z m-17 -137 c-18 -110 -54
-220 -116 -349 -46 -96 -66 -125 -131 -190 l-76 -77 65 71 c36 39 75 91 87
115 13 24 29 55 37 69 8 14 12 31 9 38 -3 7 -1 11 4 8 11 -7 23 22 14 36 -3 6
-2 8 4 5 13 -8 62 122 79 211 16 87 17 92 4 72 -5 -8 -10 -10 -10 -5 1 6 7 19
15 29 8 11 16 34 16 50 1 21 3 25 6 12 3 -11 0 -54 -7 -95z m-356 -648 c-30
-27 -44 -31 -21 -5 10 10 15 21 12 23 -2 3 4 5 15 5 16 0 15 -3 -6 -23z m-90
-76 c-73 -65 -156 -128 -162 -123 -6 7 50 55 65 56 7 0 18 9 25 20 7 11 16 20
20 20 14 0 47 38 40 46 -4 4 -2 4 5 0 7 -4 17 2 23 14 6 11 15 18 21 14 5 -3
-11 -24 -37 -47z m-187 -299 c-3 -8 -6 -5 -6 6 -1 11 2 17 5 13 3 -3 4 -12 1
-19z m-509 -115 c-49 -2 -127 -2 -175 0 -49 1 -9 3 87 3 96 0 136 -2 88 -3z
m333 -221 c-5 -10 -55 -62 -111 -115 -72 -69 -108 -97 -125 -97 -14 0 -25 5
-25 11 0 6 7 9 15 6 8 -4 17 -1 21 5 4 6 3 8 -4 4 -6 -3 -13 -2 -16 3 -4 5 2
8 11 6 10 -1 30 4 45 11 34 17 134 115 130 127 -1 5 1 6 6 3 4 -2 18 9 31 25
26 33 36 38 22 11z m-410 -239 c-5 -10 -35 -43 -67 -73 l-58 -55 65 72 c68 76
75 83 60 56z m-231 -198 c-7 -9 -15 -13 -19 -10 -3 3 1 10 9 15 21 14 24 12
10 -5z m-31 -18 c-4 -4 -125 -75 -143 -85 -5 -3 -6 0 -2 7 5 7 18 17 29 22 12
5 42 22 67 38 25 15 47 27 49 25 2 -2 2 -5 0 -7z m-249 -141 c0 -2 -7 -7 -16
-10 -8 -3 -12 -2 -9 4 6 10 25 14 25 6z m-93 -42 c-3 -3 -12 -4 -19 -1 -8 3
-5 6 6 6 11 1 17 -2 13 -5z m-1147 -38 c25 -8 36 -15 25 -15 -11 0 -33 6 -50
14 -39 18 -31 18 25 1z m1020 0 c0 -2 -11 -6 -25 -8 -13 -3 -22 -1 -19 3 5 9
44 13 44 5z m-943 -22 c-3 -3 -12 -4 -19 -1 -8 3 -5 6 6 6 11 1 17 -2 13 -5z
m46 -11 c-7 -2 -19 -2 -25 0 -7 3 -2 5 12 5 14 0 19 -2 13 -5z m60 -10 c-7 -2
-21 -2 -30 0 -10 3 -4 5 12 5 17 0 24 -2 18 -5z m665 0 c-10 -2 -26 -2 -35 0
-10 3 -2 5 17 5 19 0 27 -2 18 -5z m-601 -9 c-3 -3 -12 -4 -19 -1 -8 3 -5 6 6
6 11 1 17 -2 13 -5z m506 -1 c-7 -2 -19 -2 -25 0 -7 3 -2 5 12 5 14 0 19 -2
13 -5z m-165 -10 c-54 -2 -142 -2 -195 0 -54 1 -10 3 97 3 107 0 151 -2 98 -3z"/>
<path d="M2404 5810 c-18 -7 -84 -122 -84 -146 0 -20 74 -154 81 -147 13 14
40 144 46 226 6 82 4 86 -43 67z"/>
</g>
</svg>
